# xmcd
#
# Track frame offsets:
#	150
#	14162
#	22243
#	31540
#	44186
#	58169
#	67037
#	83953
#	100016
#	111343
#	126795
#	135524
#	147054
#	157133
#	169138
#	180018
#	192902
#	203625
#	218489
#	232031
#	249150
#	259512
#	270552
#	280663
#
# Disc length: 3913
#
# Revision: 2
# Processed by: cddbd v1.5.1PL0 Copyright (c) Steve Scherf et al.
# Submitted via: CDex 1.50Beta7
# Normalized: r0:TDELIM( - ),TSWAP
#
DISCID=560f4718
DTITLE=Jazz Planet - The Best of Jazz
DYEAR=2000
DGENRE=Jazz
TTITLE0=Louis Armstrong - That lucky old sun
TTITLE1=Stan Getz and Bill Evans - Carpetbagger's theme
TTITLE2=Ray Charles - Hit the road Jack
TTITLE3=Ben Webster - While we're dancing
TTITLE4=Roy Eldridge - Let me off uptown
TTITLE5=Ella Fitzgerald - Cool breeze
TTITLE6=Illinois Jacquet - Flyin Home
TTITLE7=Ahmad Jamal - Foolish ways
TTITLE8=Cleo Laine - I'm gonna sit right down
TTITLE9=Desmond and The MJQ - Greensleeves
TTITLE10=Sarah Vaughan - Ooh, what'cha doin'to me
TTITLE11=The Modern Jazz Quartet - Vendo me
TTITLE12=Zoot Sims - How long has this been going on
TTITLE13=Armstrong and Ellington - Do nothin'till you hear from me
TTITLE14=John Coltrane - Alabama
TTITLE15=Shirley Scott - Sophisticated swing
TTITLE16=Erroll - All of me
TTITLE17=Count Basie and Oscar Peterson - 9-20 special
TTITLE18=Just a gigolo
TTITLE19=Stephane Grapelli - Two cute
TTITLE20=Chris Connor - Fancy free
TTITLE21=Johny Hodges and Wild Bill Davis - The jeep is jumpin
TTITLE22=Les Swingle Singers - Prelude en fa majeur
TTITLE23=Winton Marsalis - Melancholia
EXTD=YEAR: 2000
EXTT0=
EXTT1=
EXTT2=
EXTT3=
EXTT4=
EXTT5=
EXTT6=
EXTT7=
EXTT8=
EXTT9=
EXTT10=
EXTT11=
EXTT12=
EXTT13=
EXTT14=
EXTT15=
EXTT16=
EXTT17=
EXTT18=
EXTT19=
EXTT20=
EXTT21=
EXTT22=
EXTT23=
PLAYORDER=
